<svg xmlns="http://www.w3.org/2000/svg" xmlns:xlink="http://www.w3.org/1999/xlink" width="500" zoomAndPan="magnify" viewBox="0 0 375 374.999991" height="500" preserveAspectRatio="xMidYMid meet" version="1.0"><defs><g/><clipPath id="84273429f9"><path d="M 47.496094 48.179688 L 327.503906 48.179688 L 327.503906 328.183594 L 47.496094 328.183594 Z M 47.496094 48.179688 " clip-rule="nonzero"/></clipPath><clipPath id="ed47264ea6"><path d="M 187.5 48.179688 C 110.179688 48.179688 47.496094 110.863281 47.496094 188.183594 C 47.496094 265.503906 110.179688 328.183594 187.5 328.183594 C 264.820312 328.183594 327.503906 265.503906 327.503906 188.183594 C 327.503906 110.863281 264.820312 48.179688 187.5 48.179688 " clip-rule="nonzero"/></clipPath><clipPath id="9bbc055959"><path d="M 0 0.683594 L 375 0.683594 L 375 375 L 0 375 Z M 0 0.683594 " clip-rule="nonzero"/></clipPath><clipPath id="d27dce0358"><path d="M 0 167.214844 L 375 167.214844 L 375 209 L 0 209 Z M 0 167.214844 " clip-rule="nonzero"/></clipPath></defs><rect x="-37.5" width="450" fill="#ffffff" y="-37.499999" height="449.999989" fill-opacity="1"/><rect x="-37.5" width="450" fill="#ffffff" y="-37.499999" height="449.999989" fill-opacity="1"/><rect x="-37.5" width="450" fill="#ffffff" y="-37.499999" height="449.999989" fill-opacity="1"/><g clip-path="url(#84273429f9)"><g clip-path="url(#ed47264ea6)"><path fill="#000000" d="M 47.496094 48.179688 L 327.503906 48.179688 L 327.503906 328.183594 L 47.496094 328.183594 Z M 47.496094 48.179688 " fill-opacity="1" fill-rule="nonzero"/></g></g><g clip-path="url(#9bbc055959)"><path fill="#000000" d="M 187.5 375.683594 C 84.144531 375.683594 0 291.539062 0 188.183594 C 0 84.828125 84.144531 0.683594 187.5 0.683594 C 290.855469 0.683594 375 84.828125 375 188.183594 C 375 291.539062 290.855469 375.683594 187.5 375.683594 Z M 187.5 3.453125 C 85.621094 3.453125 2.769531 86.304688 2.769531 188.183594 C 2.769531 290.0625 85.621094 372.910156 187.5 372.910156 C 289.378906 372.910156 372.230469 290.0625 372.230469 188.183594 C 372.230469 86.304688 289.378906 3.453125 187.5 3.453125 Z M 187.5 3.453125 " fill-opacity="1" fill-rule="nonzero"/></g><g fill="#a6a6a6" fill-opacity="1"><g transform="translate(110.139166, 306.528759)"><g><path d="M 91.640625 3.109375 C 74.453125 3.109375 60.109375 -1.648438 48.609375 -11.171875 C 37.117188 -20.703125 28.421875 -34.0625 22.515625 -51.25 C 16.617188 -68.445312 13.671875 -88.539062 13.671875 -111.53125 C 13.671875 -134.519531 16.617188 -154.503906 22.515625 -171.484375 C 28.421875 -188.472656 37.222656 -201.625 48.921875 -210.9375 C 60.628906 -220.257812 75.179688 -224.921875 92.578125 -224.921875 C 109.566406 -224.921875 122.613281 -221.398438 131.71875 -214.359375 C 140.832031 -207.316406 145.390625 -198.929688 145.390625 -189.203125 C 145.390625 -183.191406 143.523438 -178.320312 139.796875 -174.59375 C 136.066406 -170.863281 130.679688 -169 123.640625 -169 C 123.640625 -187.226562 121.257812 -200.585938 116.5 -209.078125 C 111.738281 -217.566406 103.554688 -221.8125 91.953125 -221.8125 C 74.140625 -221.8125 61.398438 -212.441406 53.734375 -193.703125 C 46.078125 -174.960938 42.25 -147.570312 42.25 -111.53125 C 42.25 -75.082031 46.492188 -47.429688 54.984375 -28.578125 C 63.472656 -9.734375 77.25 -0.3125 96.3125 -0.3125 C 108.53125 -0.3125 117.953125 -4.242188 124.578125 -12.109375 C 131.203125 -19.984375 135.445312 -30.648438 137.3125 -44.109375 C 140.425781 -43.285156 142.5 -41.628906 143.53125 -39.140625 C 144.5625 -36.660156 145.078125 -34.488281 145.078125 -32.625 C 145.078125 -27.65625 143.210938 -22.375 139.484375 -16.78125 C 135.765625 -11.1875 130.019531 -6.472656 122.25 -2.640625 C 114.476562 1.191406 104.273438 3.109375 91.640625 3.109375 Z M 91.640625 3.109375 "/></g></g></g><g clip-path="url(#d27dce0358)"><path fill="#ffffff" d="M 0 167.214844 L 375.203125 167.214844 L 375.203125 208.632812 L 0 208.632812 Z M 0 167.214844 " fill-opacity="1" fill-rule="nonzero"/></g><g fill="#000000" fill-opacity="1"><g transform="translate(68.622656, 195.682605)"><g><path d="M 16.0625 -1.34375 C 16.0625 -0.53125 16.175781 -0.0625 16.40625 0.0625 C 16.539062 0.113281 16.726562 0.140625 16.96875 0.140625 L 16.96875 -5.390625 L 16.265625 -5.390625 C 15.265625 -2.171875 13.269531 -0.550781 10.28125 -0.53125 C 7.738281 -0.53125 6.007812 -1.804688 5.09375 -4.359375 C 4.644531 -5.609375 4.421875 -7.085938 4.421875 -8.796875 C 4.421875 -12.441406 5.425781 -14.921875 7.4375 -16.234375 C 8.320312 -16.773438 9.300781 -17.046875 10.375 -17.046875 C 12.8125 -17.046875 14.578125 -15.894531 15.671875 -13.59375 C 15.867188 -13.1875 16.035156 -12.765625 16.171875 -12.328125 L 16.875 -12.328125 L 16.78125 -17.71875 C 16.351562 -17.71875 16.09375 -17.582031 16 -17.3125 C 15.9375 -17.082031 15.90625 -16.703125 15.90625 -16.171875 C 15.34375 -16.734375 14.378906 -17.191406 13.015625 -17.546875 C 12.109375 -17.765625 11.1875 -17.875 10.25 -17.875 C 7.164062 -17.875 4.804688 -16.726562 3.171875 -14.4375 C 2.035156 -12.820312 1.46875 -10.957031 1.46875 -8.84375 C 1.46875 -6.289062 2.257812 -4.144531 3.84375 -2.40625 C 5.519531 -0.601562 7.707031 0.296875 10.40625 0.296875 C 12.375 0.273438 14.257812 -0.269531 16.0625 -1.34375 Z M 16.0625 -1.34375 "/></g></g></g><g fill="#000000" fill-opacity="1"><g transform="translate(93.203906, 195.682605)"><g><path d="M 8.34375 0 C 8.34375 -0.425781 8.1875 -0.671875 7.875 -0.734375 C 7.78125 -0.753906 7.6875 -0.765625 7.59375 -0.765625 L 6.03125 -0.765625 L 6.03125 -8.640625 L 15.03125 -8.640625 L 15.03125 -0.765625 L 12.6875 -0.765625 L 12.6875 0 L 19.859375 0 C 19.859375 -0.425781 19.703125 -0.671875 19.390625 -0.734375 C 19.296875 -0.753906 19.203125 -0.765625 19.109375 -0.765625 L 17.546875 -0.765625 L 17.546875 -16.8125 L 19.859375 -16.8125 L 19.859375 -17.578125 L 12.6875 -17.578125 L 12.6875 -16.8125 L 15.03125 -16.8125 L 15.03125 -9.5 L 6.03125 -9.5 L 6.03125 -16.8125 L 8.34375 -16.8125 L 8.34375 -17.578125 L 1.171875 -17.578125 L 1.171875 -16.8125 L 3.515625 -16.8125 L 3.515625 -0.765625 L 1.171875 -0.765625 L 1.171875 0 Z M 8.34375 0 "/></g></g></g><g fill="#000000" fill-opacity="1"><g transform="translate(120.539062, 195.682605)"><g><path d="M 10.40625 -17.875 C 8.0625 -17.875 6.046875 -17.101562 4.359375 -15.5625 C 2.523438 -13.863281 1.609375 -11.644531 1.609375 -8.90625 C 1.609375 -5.738281 2.691406 -3.296875 4.859375 -1.578125 C 6.441406 -0.328125 8.257812 0.296875 10.3125 0.296875 C 12.613281 0.296875 14.597656 -0.484375 16.265625 -2.046875 C 18.117188 -3.785156 19.046875 -6.035156 19.046875 -8.796875 C 19.046875 -12.015625 17.921875 -14.460938 15.671875 -16.140625 C 14.148438 -17.296875 12.394531 -17.875 10.40625 -17.875 Z M 10.40625 -0.53125 C 7.570312 -0.53125 5.753906 -2.039062 4.953125 -5.0625 C 4.679688 -6.144531 4.546875 -7.390625 4.546875 -8.796875 C 4.546875 -13.441406 5.953125 -16.132812 8.765625 -16.875 C 9.253906 -16.988281 9.769531 -17.046875 10.3125 -17.046875 C 14.15625 -17.015625 16.085938 -14.300781 16.109375 -8.90625 C 16.109375 -4.644531 14.925781 -2 12.5625 -0.96875 C 11.90625 -0.675781 11.1875 -0.53125 10.40625 -0.53125 Z M 10.40625 -0.53125 "/></g></g></g><g fill="#000000" fill-opacity="1"><g transform="translate(147.493358, 195.682605)"><g><path d="M 8.34375 0 C 8.34375 -0.425781 8.1875 -0.671875 7.875 -0.734375 C 7.78125 -0.753906 7.6875 -0.765625 7.59375 -0.765625 L 6.03125 -0.765625 L 6.03125 -16.8125 L 8.34375 -16.8125 L 8.34375 -17.578125 L 1.171875 -17.578125 L 1.171875 -16.8125 L 3.515625 -16.8125 L 3.515625 -0.765625 L 1.171875 -0.765625 L 1.171875 0 Z M 8.34375 0 "/></g></g></g><g fill="#000000" fill-opacity="1"><g transform="translate(163.314843, 195.682605)"><g><path d="M 15.171875 0 L 15.234375 -6.0625 L 14.59375 -6.0625 L 13.96875 -3.25 C 13.5625 -1.613281 12.609375 -0.785156 11.109375 -0.765625 L 3.875 -0.765625 L 15.09375 -16.96875 L 15.09375 -17.578125 L 2.046875 -17.578125 L 1.78125 -12.28125 L 2.375 -12.28125 L 3.515625 -14.90625 C 4.097656 -16.15625 4.890625 -16.789062 5.890625 -16.8125 L 12.28125 -16.8125 L 0.734375 -0.59375 L 0.734375 0 Z M 15.171875 0 "/></g></g></g><g fill="#000000" fill-opacity="1"><g transform="translate(185.728118, 195.682605)"><g/></g></g><g fill="#000000" fill-opacity="1"><g transform="translate(197.741003, 195.682605)"><g><path d="M 9.234375 -16.8125 C 10.972656 -16.8125 12.09375 -16.03125 12.59375 -14.46875 C 12.75 -13.96875 12.828125 -13.421875 12.828125 -12.828125 C 12.828125 -10.296875 11.695312 -8.898438 9.4375 -8.640625 C 9.195312 -8.617188 8.960938 -8.609375 8.734375 -8.609375 L 6.03125 -8.609375 L 6.03125 -16.8125 Z M 8.96875 0 C 8.96875 -0.425781 8.8125 -0.671875 8.5 -0.734375 C 8.394531 -0.753906 8.296875 -0.765625 8.203125 -0.765625 L 6.03125 -0.765625 L 6.03125 -7.765625 L 8.609375 -7.765625 C 11.816406 -7.765625 13.9375 -8.671875 14.96875 -10.484375 C 15.382812 -11.171875 15.59375 -11.960938 15.59375 -12.859375 C 15.59375 -14.796875 14.75 -16.15625 13.0625 -16.9375 C 12.164062 -17.363281 11.09375 -17.578125 9.84375 -17.578125 L 1.171875 -17.578125 L 1.171875 -16.8125 L 3.515625 -16.8125 L 3.515625 -0.765625 L 1.171875 -0.765625 L 1.171875 0 Z M 8.96875 0 "/></g></g></g><g fill="#000000" fill-opacity="1"><g transform="translate(220.505841, 195.682605)"><g><path d="M 14 0 L 14.15625 -5.859375 L 13.5625 -5.859375 L 13.0625 -3.890625 C 12.59375 -2.097656 11.8125 -1.078125 10.71875 -0.828125 C 10.488281 -0.785156 10.265625 -0.765625 10.046875 -0.765625 L 6.03125 -0.765625 L 6.03125 -16.8125 L 8.5 -16.8125 L 8.5 -17.578125 L 1.171875 -17.578125 L 1.171875 -16.8125 L 3.515625 -16.8125 L 3.515625 -0.765625 L 1.171875 -0.765625 L 1.171875 0 Z M 14 0 "/></g></g></g><g fill="#000000" fill-opacity="1"><g transform="translate(241.249194, 195.682605)"><g><path d="M 17.953125 0 C 17.953125 -0.425781 17.796875 -0.671875 17.484375 -0.734375 C 17.390625 -0.753906 17.296875 -0.765625 17.203125 -0.765625 L 16.203125 -0.765625 L 9.5 -17.578125 L 8.40625 -17.578125 L 1.84375 -0.765625 L 0 -0.765625 L 0 0 L 5.21875 0 C 5.21875 -0.425781 5.0625 -0.671875 4.75 -0.734375 C 4.644531 -0.753906 4.546875 -0.765625 4.453125 -0.765625 L 3.015625 -0.765625 L 5.21875 -6.453125 L 11.34375 -6.453125 L 13.53125 -0.765625 L 11.625 -0.765625 L 11.625 0 Z M 11.015625 -7.296875 L 5.53125 -7.296875 L 8.265625 -14.390625 Z M 11.015625 -7.296875 "/></g></g></g><g fill="#000000" fill-opacity="1"><g transform="translate(265.508172, 195.682605)"><g><path d="M 16.0625 -1.34375 C 16.0625 -0.53125 16.175781 -0.0625 16.40625 0.0625 C 16.539062 0.113281 16.726562 0.140625 16.96875 0.140625 L 16.96875 -5.390625 L 16.265625 -5.390625 C 15.265625 -2.171875 13.269531 -0.550781 10.28125 -0.53125 C 7.738281 -0.53125 6.007812 -1.804688 5.09375 -4.359375 C 4.644531 -5.609375 4.421875 -7.085938 4.421875 -8.796875 C 4.421875 -12.441406 5.425781 -14.921875 7.4375 -16.234375 C 8.320312 -16.773438 9.300781 -17.046875 10.375 -17.046875 C 12.8125 -17.046875 14.578125 -15.894531 15.671875 -13.59375 C 15.867188 -13.1875 16.035156 -12.765625 16.171875 -12.328125 L 16.875 -12.328125 L 16.78125 -17.71875 C 16.351562 -17.71875 16.09375 -17.582031 16 -17.3125 C 15.9375 -17.082031 15.90625 -16.703125 15.90625 -16.171875 C 15.34375 -16.734375 14.378906 -17.191406 13.015625 -17.546875 C 12.109375 -17.765625 11.1875 -17.875 10.25 -17.875 C 7.164062 -17.875 4.804688 -16.726562 3.171875 -14.4375 C 2.035156 -12.820312 1.46875 -10.957031 1.46875 -8.84375 C 1.46875 -6.289062 2.257812 -4.144531 3.84375 -2.40625 C 5.519531 -0.601562 7.707031 0.296875 10.40625 0.296875 C 12.375 0.273438 14.257812 -0.269531 16.0625 -1.34375 Z M 16.0625 -1.34375 "/></g></g></g><g fill="#000000" fill-opacity="1"><g transform="translate(290.089416, 195.682605)"><g><path d="M 14.828125 -12.3125 L 14.671875 -17.578125 L 1.171875 -17.578125 L 1.171875 -16.8125 L 3.515625 -16.8125 L 3.515625 -0.765625 L 1.171875 -0.765625 L 1.171875 0 L 14.671875 0 L 14.828125 -5.28125 L 14.234375 -5.28125 L 13.828125 -3.890625 C 13.335938 -2.234375 12.613281 -1.238281 11.65625 -0.90625 C 11.363281 -0.8125 11.050781 -0.765625 10.71875 -0.765625 L 6.03125 -0.765625 L 6.03125 -8.640625 L 12.078125 -8.640625 L 12.078125 -9.5 L 6.03125 -9.5 L 6.03125 -16.8125 L 10.71875 -16.8125 C 12.125 -16.8125 13.128906 -15.863281 13.734375 -13.96875 C 13.773438 -13.851562 13.804688 -13.757812 13.828125 -13.6875 L 14.234375 -12.3125 Z M 14.828125 -12.3125 "/></g></g></g></svg>